<?xml version="1.0" standalone="no"?>
<!DOCTYPE svg PUBLIC "-//W3C//DTD SVG 20010904//EN"
 "http://www.w3.org/TR/2001/REC-SVG-20010904/DTD/svg10.dtd">
<svg version="1.0" xmlns="http://www.w3.org/2000/svg"
 width="519.000000pt" height="387.000000pt" viewBox="0 0 519.000000 387.000000"
 preserveAspectRatio="xMidYMid meet">

<g transform="translate(0.000000,387.000000) scale(0.100000,-0.100000)"
fill="#000000" stroke="none">
<path d="M831 3398 c-97 -95 -193 -261 -242 -418 -20 -63 -24 -96 -24 -210 0
-163 17 -222 101 -356 67 -107 71 -112 317 -364 291 -298 396 -430 485 -606
48 -95 69 -162 81 -265 9 -69 2 -174 -15 -234 -10 -33 82 63 132 137 87 130
125 264 125 433 0 160 -39 302 -132 485 -78 153 -124 222 -338 510 -318 429
-419 638 -434 898 l-2 43 -54 -53z"/>
<path d="M2050 1930 l0 -270 25 0 25 0 0 270 0 270 -25 0 -25 0 0 -270z"/>
<path d="M2680 2105 c0 -52 -1 -55 -25 -55 -16 0 -25 -6 -25 -15 0 -9 9 -15
25 -15 l25 0 0 -157 c0 -192 6 -208 70 -208 33 0 46 4 48 16 2 12 -3 15 -21
12 -14 -3 -31 2 -41 12 -14 15 -16 37 -14 168 l3 152 38 3 c53 5 51 32 -3 32
l-40 0 0 55 c0 48 -2 55 -20 55 -18 0 -20 -7 -20 -55z"/>
<path d="M4430 2105 c0 -54 0 -55 -30 -55 -20 0 -30 -5 -30 -15 0 -10 10 -15
30 -15 l30 0 0 -168 c0 -153 2 -170 19 -186 26 -23 94 -19 99 7 3 15 -1 17
-22 11 -51 -12 -56 3 -56 177 l0 159 35 0 c24 0 35 5 35 15 0 10 -11 15 -35
15 l-35 0 0 55 c0 48 -2 55 -20 55 -18 0 -20 -7 -20 -55z"/>
<path d="M2330 2031 l-45 -30 -3 24 c-2 17 -10 25 -23 25 -18 0 -19 -9 -19
-195 0 -185 1 -195 19 -195 18 0 19 10 23 143 2 115 6 147 21 168 22 33 57 49
107 49 89 0 100 -23 100 -215 0 -138 1 -145 20 -145 19 0 20 7 20 153 0 101
-4 160 -13 176 -19 38 -62 63 -114 68 -41 4 -54 0 -93 -26z"/>
<path d="M2964 2041 c-71 -32 -109 -111 -102 -210 8 -116 72 -181 178 -181 65
0 110 24 140 72 25 41 25 48 2 48 -10 0 -25 -11 -32 -25 -20 -38 -60 -59 -112
-59 -59 -1 -96 25 -122 87 -32 75 -29 77 145 77 l152 0 -7 46 c-18 131 -128
197 -242 145z m155 -47 c25 -21 51 -74 51 -106 0 -5 -61 -8 -136 -8 l-135 0 7
23 c25 80 67 117 135 117 36 0 55 -6 78 -26z"/>
<path d="M3417 2045 c-16 -8 -37 -25 -47 -37 l-19 -23 -1 33 c0 25 -4 32 -20
32 -19 0 -20 -7 -20 -195 0 -186 1 -195 19 -195 18 0 20 10 23 139 4 161 14
186 86 209 30 10 42 19 42 33 0 23 -24 25 -63 4z"/>
<path d="M3631 2038 c-29 -14 -48 -32 -57 -54 -18 -43 -18 -44 6 -44 12 0 24
10 30 24 14 38 49 56 106 56 67 0 104 -27 104 -75 0 -18 -6 -38 -13 -44 -8 -6
-49 -16 -93 -22 -100 -13 -141 -33 -162 -75 -35 -75 23 -154 115 -154 47 0
106 21 135 47 15 14 18 14 18 1 0 -42 81 -64 88 -24 3 12 0 16 -7 11 -7 -4
-18 -1 -26 5 -12 10 -15 42 -15 149 0 117 -3 140 -20 168 -33 54 -132 69 -209
31z m189 -229 c0 -42 -5 -55 -28 -79 -52 -52 -149 -62 -187 -19 -22 24 -22 75
0 100 16 16 70 32 150 42 68 9 65 11 65 -44z"/>
<path d="M4067 2039 c-20 -11 -49 -38 -65 -61 -24 -37 -27 -50 -27 -128 0 -78
3 -91 28 -128 63 -96 219 -97 285 -2 27 40 29 70 5 70 -11 0 -25 -16 -36 -40
-33 -71 -149 -89 -201 -31 -49 54 -58 153 -21 227 28 57 55 74 118 74 49 0 81
-19 102 -61 19 -36 60 -42 50 -6 -13 42 -37 69 -78 88 -54 24 -112 23 -160 -2z"/>
<path d="M817 1930 c-54 -60 -121 -186 -142 -266 -31 -121 -11 -241 59 -346
20 -30 112 -134 204 -230 92 -95 189 -203 214 -238 95 -135 133 -242 126 -356
-6 -83 0 -85 49 -21 104 138 127 306 67 486 -35 105 -80 183 -192 339 -281
387 -332 485 -334 634 0 27 -1 48 -3 48 -2 0 -23 -22 -48 -50z"/>
</g>
</svg>
